<svg version="1.1" xmlns="http://www.w3.org/2000/svg" xmlns:xlink="http://www.w3.org/1999/xlink" width="1140" height="666"><defs><clipPath id="KERGNeZimukW"><path fill="none" stroke="none" d=" M 0 0 L 1140 0 L 1140 666 L 0 666 L 0 0 Z"/></clipPath></defs><g transform="scale(1,1)" clip-path="url(#KERGNeZimukW)"><g><rect fill="rgb(255,255,255)" stroke="none" x="0" y="0" width="1140" height="666" fill-opacity="1"/><path fill="none" stroke="rgb(37,37,37)" paint-order="fill stroke markers" d=" M 401 3 L 401 666" stroke-opacity="1" stroke-miterlimit="10" stroke-width="2"/><path fill="rgb(37,37,37)" stroke="none" paint-order="stroke fill markers" fill-rule="evenodd" d=" M 400.9463103956599 2 L 395.9463103956599 22 L 405.9463103956599 22" fill-opacity="1"/><text fill="rgb(37,37,37)" stroke="none" font-family="geogebra-sans-serif, sans-serif" font-size="16px" font-style="normal" font-weight="normal" text-decoration="normal" x="1122" y="366" text-anchor="start" dominant-baseline="alphabetic" fill-opacity="1">x</text><path fill="none" stroke="rgb(37,37,37)" paint-order="fill stroke markers" d=" M 0 371 L 1137 371" stroke-opacity="1" stroke-miterlimit="10" stroke-width="2"/><path fill="rgb(37,37,37)" stroke="none" paint-order="stroke fill markers" fill-rule="evenodd" d=" M 1138 370.7412309269107 L 1118 365.7412309269107 L 1118 375.7412309269107" fill-opacity="1"/><text fill="rgb(37,37,37)" stroke="none" font-family="geogebra-sans-serif, sans-serif" font-size="16px" font-style="normal" font-weight="normal" text-decoration="normal" x="405" y="17" text-anchor="start" dominant-baseline="alphabetic" fill-opacity="1">y</text><path fill="none" stroke="rgb(46,125,50)" paint-order="fill stroke markers" d=" M 719.3835740989317 0 C 294.8005558279026 247.1608206179405 294.8005558279026 494.3216412358809 719.3835740989317 741.4824618538214" stroke-opacity="0.8" stroke-linecap="round" stroke-linejoin="round" stroke-miterlimit="10" stroke-width="2.5"/><path fill="none" stroke="rgb(0,0,0)" paint-order="fill stroke markers" d=" M 457.0044026094418 526.2941275222995 C 582.6449131654103 568.1742977076224 718.4472569918182 500.2731257944185 760.3274271771411 374.63261523845006 C 802.207597362464 248.99210468248165 734.30642544926 113.18976085607386 608.6659148932915 71.30959067075102" stroke-opacity="0.6980392156862745" stroke-linecap="round" stroke-linejoin="round" stroke-miterlimit="10" stroke-width="2.5"/><path fill="none" stroke="rgb(0,0,0)" paint-order="fill stroke markers" d=" M 608.6659148932914 71.30959067075102 C 483.0254043373229 29.42942048542824 347.22306051091505 97.33059239863212 305.34289032559224 222.9711029546005 C 263.4627201402694 348.61161351056893 331.36389205347336 484.4139573369767 457.0044026094418 526.2941275222995" stroke-opacity="0.6980392156862745" stroke-linecap="round" stroke-linejoin="round" stroke-miterlimit="10" stroke-width="2.5"/><path fill="rgb(0,0,0)" stroke="none" paint-order="stroke fill markers" d=" M 528.8553681412382 370.7412309269107 C 528.8553681412382 362.1326227654411 523.3467662438225 354.48984589331627 515.1799234615748 351.7675649659004 L 508.8553681412381 370.7412309269107 Z" fill-opacity="0.09803921568627451"/><path fill="none" stroke="rgb(0,0,0)" paint-order="fill stroke markers" d=" M 528.8553681412382 370.7412309269107 C 528.8553681412382 362.1326227654411 523.3467662438225 354.48984589331627 515.1799234615748 351.7675649659004 L 508.8553681412381 370.7412309269107 Z" stroke-opacity="0.6" stroke-linecap="round" stroke-linejoin="round" stroke-miterlimit="10" stroke-width="2.5"/><text fill="rgb(0,0,0)" stroke="none" font-family="geogebra-sans-serif, sans-serif" font-size="16px" font-style="normal" font-weight="normal" text-decoration="normal" x="529" y="358" text-anchor="start" dominant-baseline="alphabetic" fill-opacity="1">θ</text><text fill="none" stroke="rgb(255,255,255)" font-family="geogebra-sans-serif, sans-serif" font-size="16px" font-style="normal" font-weight="normal" text-decoration="normal" x="529" y="358" text-anchor="start" dominant-baseline="alphabetic" stroke-opacity="1" stroke-linejoin="bevel" stroke-miterlimit="10" stroke-width="3">θ</text><text fill="rgb(0,0,0)" stroke="none" font-family="geogebra-sans-serif, sans-serif" font-size="16px" font-style="normal" font-weight="normal" text-decoration="normal" x="529" y="358" text-anchor="start" dominant-baseline="alphabetic" fill-opacity="1">θ</text><path fill="none" stroke="rgb(211,47,47)" paint-order="fill stroke markers" d=" M 293.0372526500817 671 L 293.0372526500817 -5" stroke-opacity="0.8" stroke-linecap="round" stroke-linejoin="round" stroke-miterlimit="10" stroke-width="2.5"/><path fill="none" stroke="rgb(0,0,0)" paint-order="fill stroke markers" d=" M 457.0044026094418 526.2941275222995 L 608.6659148932914 71.30959067075099" stroke-opacity="0.6980392156862745" stroke-linecap="round" stroke-linejoin="round" stroke-miterlimit="10" stroke-width="2.5"/><path fill="rgb(0,0,0)" stroke="none" paint-order="stroke fill markers" d=" M 509.8553681412381 370.7412309269107 C 509.8553681412381 371.2935156767415 509.4076528910689 371.7412309269107 508.8553681412381 371.7412309269107 C 508.3030833914073 371.7412309269107 507.8553681412381 371.2935156767415 507.8553681412381 370.7412309269107 C 507.8553681412381 370.1889461770799 508.3030833914073 369.7412309269107 508.8553681412381 369.7412309269107 C 509.4076528910689 369.7412309269107 509.8553681412381 370.1889461770799 509.8553681412381 370.7412309269107 Z" fill-opacity="1"/><path fill="none" stroke="rgb(0,0,0)" paint-order="fill stroke markers" d=" M 509.8553681412381 370.7412309269107 C 509.8553681412381 371.2935156767415 509.4076528910689 371.7412309269107 508.8553681412381 371.7412309269107 C 508.3030833914073 371.7412309269107 507.8553681412381 371.2935156767415 507.8553681412381 370.7412309269107 C 507.8553681412381 370.1889461770799 508.3030833914073 369.7412309269107 508.8553681412381 369.7412309269107 C 509.4076528910689 369.7412309269107 509.8553681412381 370.1889461770799 509.8553681412381 370.7412309269107 Z" stroke-opacity="1" stroke-linecap="round" stroke-linejoin="round" stroke-miterlimit="10"/><text fill="rgb(0,0,0)" stroke="none" font-family="geogebra-sans-serif, sans-serif" font-size="16px" font-style="normal" font-weight="normal" text-decoration="normal" x="503" y="361" text-anchor="start" dominant-baseline="alphabetic" fill-opacity="1">F</text><text fill="none" stroke="rgb(255,255,255)" font-family="geogebra-sans-serif, sans-serif" font-size="16px" font-style="normal" font-weight="normal" text-decoration="normal" x="503" y="361" text-anchor="start" dominant-baseline="alphabetic" stroke-opacity="1" stroke-linejoin="bevel" stroke-miterlimit="10" stroke-width="3">F</text><text fill="rgb(0,0,0)" stroke="none" font-family="geogebra-sans-serif, sans-serif" font-size="16px" font-style="normal" font-weight="normal" text-decoration="normal" x="503" y="361" text-anchor="start" dominant-baseline="alphabetic" fill-opacity="1">F</text><path fill="rgb(97,97,97)" stroke="none" paint-order="stroke fill markers" d=" M 458.0044026094418 526.2941275222995 C 458.0044026094418 526.8464122721304 457.5566873592726 527.2941275222995 457.0044026094418 527.2941275222995 C 456.452117859611 527.2941275222995 456.0044026094418 526.8464122721304 456.0044026094418 526.2941275222995 C 456.0044026094418 525.7418427724687 456.452117859611 525.2941275222995 457.0044026094418 525.2941275222995 C 457.5566873592726 525.2941275222995 458.0044026094418 525.7418427724687 458.0044026094418 526.2941275222995 Z" fill-opacity="1"/><path fill="none" stroke="rgb(0,0,0)" paint-order="fill stroke markers" d=" M 458.0044026094418 526.2941275222995 C 458.0044026094418 526.8464122721304 457.5566873592726 527.2941275222995 457.0044026094418 527.2941275222995 C 456.452117859611 527.2941275222995 456.0044026094418 526.8464122721304 456.0044026094418 526.2941275222995 C 456.0044026094418 525.7418427724687 456.452117859611 525.2941275222995 457.0044026094418 525.2941275222995 C 457.5566873592726 525.2941275222995 458.0044026094418 525.7418427724687 458.0044026094418 526.2941275222995 Z" stroke-opacity="1" stroke-linecap="round" stroke-linejoin="round" stroke-miterlimit="10"/><text fill="rgb(97,97,97)" stroke="none" font-family="geogebra-sans-serif, sans-serif" font-size="16px" font-style="normal" font-weight="normal" text-decoration="normal" x="468" y="521" text-anchor="start" dominant-baseline="alphabetic" fill-opacity="1">A</text><text fill="none" stroke="rgb(255,255,255)" font-family="geogebra-sans-serif, sans-serif" font-size="16px" font-style="normal" font-weight="normal" text-decoration="normal" x="468" y="521" text-anchor="start" dominant-baseline="alphabetic" stroke-opacity="1" stroke-linejoin="bevel" stroke-miterlimit="10" stroke-width="3">A</text><text fill="rgb(97,97,97)" stroke="none" font-family="geogebra-sans-serif, sans-serif" font-size="16px" font-style="normal" font-weight="normal" text-decoration="normal" x="468" y="521" text-anchor="start" dominant-baseline="alphabetic" fill-opacity="1">A</text><path fill="rgb(97,97,97)" stroke="none" paint-order="stroke fill markers" d=" M 609.6659148932914 71.30959067075099 C 609.6659148932914 71.86187542058178 609.2181996431223 72.30959067075099 608.6659148932914 72.30959067075099 C 608.1136301434606 72.30959067075099 607.6659148932914 71.86187542058178 607.6659148932914 71.30959067075099 C 607.6659148932914 70.7573059209202 608.1136301434606 70.30959067075099 608.6659148932914 70.30959067075099 C 609.2181996431223 70.30959067075099 609.6659148932914 70.7573059209202 609.6659148932914 71.30959067075099 Z" fill-opacity="1"/><path fill="none" stroke="rgb(0,0,0)" paint-order="fill stroke markers" d=" M 609.6659148932914 71.30959067075099 C 609.6659148932914 71.86187542058178 609.2181996431223 72.30959067075099 608.6659148932914 72.30959067075099 C 608.1136301434606 72.30959067075099 607.6659148932914 71.86187542058178 607.6659148932914 71.30959067075099 C 607.6659148932914 70.7573059209202 608.1136301434606 70.30959067075099 608.6659148932914 70.30959067075099 C 609.2181996431223 70.30959067075099 609.6659148932914 70.7573059209202 609.6659148932914 71.30959067075099 Z" stroke-opacity="1" stroke-linecap="round" stroke-linejoin="round" stroke-miterlimit="10"/><text fill="rgb(97,97,97)" stroke="none" font-family="geogebra-sans-serif, sans-serif" font-size="16px" font-style="normal" font-weight="normal" text-decoration="normal" x="610" y="92" text-anchor="start" dominant-baseline="alphabetic" fill-opacity="1">B</text><text fill="none" stroke="rgb(255,255,255)" font-family="geogebra-sans-serif, sans-serif" font-size="16px" font-style="normal" font-weight="normal" text-decoration="normal" x="610" y="92" text-anchor="start" dominant-baseline="alphabetic" stroke-opacity="1" stroke-linejoin="bevel" stroke-miterlimit="10" stroke-width="3">B</text><text fill="rgb(97,97,97)" stroke="none" font-family="geogebra-sans-serif, sans-serif" font-size="16px" font-style="normal" font-weight="normal" text-decoration="normal" x="610" y="92" text-anchor="start" dominant-baseline="alphabetic" fill-opacity="1">B</text></g></g></svg>